<?xml version="1.0" encoding="UTF-8" standalone="no"?><!DOCTYPE svg PUBLIC "-//W3C//DTD SVG 1.1//EN" "http://www.w3.org/Graphics/SVG/1.1/DTD/svg11.dtd"><svg width="100%" height="100%" viewBox="0 0 125 80" version="1.1" xmlns="http://www.w3.org/2000/svg" xmlns:xlink="http://www.w3.org/1999/xlink" xml:space="preserve" xmlns:serif="http://www.serif.com/" style="fill-rule:evenodd;clip-rule:evenodd;stroke-linejoin:round;stroke-miterlimit:2;"><g id="Layer1"><path d="M125,0l-125,0l0,79.141l125,0l0,-79.141Zm-6.667,6.667l0,65.808c0,-0 -111.666,-0 -111.666,-0c-0,-0 -0,-65.808 -0,-65.808l111.666,-0Z" style="fill:#fff;"/><path d="M62.5,44.379l-10.936,-8.992c-1.978,-1.627 -4.825,-1.646 -6.825,-0.045l-42.826,34.273c-1.796,1.437 -2.488,3.853 -1.726,6.024c0.763,2.171 2.813,3.623 5.114,3.621l114.332,-0.073c2.299,-0.001 4.347,-1.455 5.108,-3.625c0.76,-2.171 0.068,-4.585 -1.728,-6.021l-42.753,-34.2c-1.999,-1.6 -4.846,-1.581 -6.824,0.046l-10.936,8.992Zm-0,7.013l14.377,-11.821l42.752,34.199l-114.331,0.074l42.825,-34.273l14.377,11.821Z" style="fill:#fff;"/><path d="M62.5,51.392l-62.5,-50.113l125,0.067l-62.5,50.046Zm0.003,-8.543l-43.519,-34.893c0,-0 87.037,0.046 87.037,0.046l-43.518,34.847Z" style="fill:#fff;"/></g></svg>