<?xml version="1.0" encoding="UTF-8" standalone="no"?><!DOCTYPE svg PUBLIC "-//W3C//DTD SVG 1.1//EN" "http://www.w3.org/Graphics/SVG/1.1/DTD/svg11.dtd"><svg width="100%" height="100%" viewBox="0 0 125 113" version="1.1" xmlns="http://www.w3.org/2000/svg" xmlns:xlink="http://www.w3.org/1999/xlink" xml:space="preserve" xmlns:serif="http://www.serif.com/" style="fill-rule:evenodd;clip-rule:evenodd;stroke-linejoin:round;stroke-miterlimit:2;"><path d="M99.927,9.635c-0,-5.254 -4.266,-9.52 -9.52,-9.52l-55.814,-0c-5.254,-0 -9.52,4.266 -9.52,9.52l0,28.559c0,5.255 4.266,9.52 9.52,9.52l55.814,0c5.254,0 9.52,-4.265 9.52,-9.52l-0,-28.559Zm-5.417,-0l0,28.559c0,2.265 -1.838,4.104 -4.103,4.104l-55.814,-0c-2.265,-0 -4.103,-1.839 -4.103,-4.104l-0,-28.559c-0,-2.265 1.838,-4.103 4.103,-4.103l55.814,-0c2.265,-0 4.103,1.838 4.103,4.103Z" style="fill:#fff;"/><rect x="19.976" y="62.615" width="85.048" height="13.861" style="fill:#fff;"/><path d="M89.845,83.004c-0,-1.018 -0.827,-1.845 -1.845,-1.845l-50.359,0c-1.018,0 -1.845,0.827 -1.845,1.845l-0,3.691c-0,1.019 0.827,1.846 1.845,1.846l50.359,-0c1.018,-0 1.845,-0.827 1.845,-1.846l-0,-3.691Z" style="fill:#fff;"/><path d="M89.845,95.127c-0,-1.019 -0.827,-1.846 -1.845,-1.846l-50.359,0c-1.018,0 -1.845,0.827 -1.845,1.846l-0,3.69c-0,1.019 0.827,1.846 1.845,1.846l50.359,-0c1.018,-0 1.845,-0.827 1.845,-1.846l-0,-3.69Z" style="fill:#fff;"/><path d="M25.073,85.92l0,-15.307c0,-5.779 4.692,-10.471 10.472,-10.471l53.91,-0c5.78,-0 10.472,4.692 10.472,10.471l-0,15.307l15.751,-0c5.145,-0 9.322,-4.177 9.322,-9.322l0,-27.966c0,-5.145 -4.177,-9.322 -9.322,-9.322l-106.356,0c-5.145,0 -9.322,4.177 -9.322,9.322l-0,27.966c-0,5.145 4.177,9.322 9.322,9.322l15.751,-0Zm68.34,-38.27c3.228,0 5.848,2.62 5.848,5.848c-0,3.227 -2.62,5.847 -5.848,5.847c-3.227,0 -5.847,-2.62 -5.847,-5.847c-0,-3.228 2.62,-5.848 5.847,-5.848Z" style="fill:#fff;"/><path d="M25.073,85.92l0,-15.307c0,-5.779 4.692,-10.471 10.472,-10.471l53.91,-0c5.78,-0 10.472,4.692 10.472,10.471l-0,15.307l15.751,-0c5.145,-0 9.322,-4.177 9.322,-9.322l0,-27.966c0,-5.145 -4.177,-9.322 -9.322,-9.322l-106.356,0c-5.145,0 -9.322,4.177 -9.322,9.322l-0,27.966c-0,5.145 4.177,9.322 9.322,9.322l15.751,-0Zm61.279,-41.193l-77.03,-0c-2.155,-0 -3.905,1.75 -3.905,3.905l-0,27.966c-0,2.155 1.75,3.905 3.905,3.905l10.334,-0l0.001,-9.89c-0,-8.769 7.119,-15.888 15.888,-15.888l46.672,-0c-0.045,-0.403 -0.068,-0.813 -0.068,-1.227c0,-3.544 1.64,-6.707 4.203,-8.771Zm14.122,-0c2.563,2.064 4.203,5.227 4.203,8.771c0,2.796 -1.021,5.356 -2.712,7.324c2.116,2.698 3.378,6.099 3.378,9.791c0,0 0,9.89 0.001,9.89c-0,-0 10.334,-0 10.334,-0c2.155,-0 3.905,-1.75 3.905,-3.905l0,-27.966c0,-2.155 -1.75,-3.905 -3.905,-3.905l-15.204,-0Zm-7.061,2.923c3.228,0 5.848,2.62 5.848,5.848c-0,3.227 -2.62,5.847 -5.848,5.847c-3.227,0 -5.847,-2.62 -5.847,-5.847c-0,-3.228 2.62,-5.848 5.847,-5.848Z" style="fill:#fff;"/><path d="M99.927,70.613c-0,-5.779 -4.692,-10.471 -10.472,-10.471l-53.91,-0c-5.78,-0 -10.472,4.692 -10.472,10.471l0,31.415c0,5.78 4.692,10.472 10.472,10.472l53.91,0c5.78,0 10.472,-4.692 10.472,-10.472l-0,-31.415Zm-5.417,0l0,31.415c0,2.79 -2.265,5.055 -5.055,5.055c0,0 -53.91,0 -53.91,0c-2.79,0 -5.055,-2.265 -5.055,-5.055l-0,-31.415c-0,-2.79 2.265,-5.055 5.055,-5.055l53.91,0c2.79,0 5.055,2.265 5.055,5.055Z" style="fill:#fff;"/></svg>